<svg width="24" height="24" viewBox="0 0 24 24" fill="none" xmlns="http://www.w3.org/2000/svg">
<g clip-path="url(#clip0)">
<path d="M0.443877 24H17.8669C18.0974 24 18.2605 23.7872 18.2605 23.5565V14.5498L23.839 8.97086C24.0033 8.80944 24.0057 8.54552 23.8445 8.38105L21.6247 6.15836C21.4577 5.99552 21.1914 5.99531 21.0242 6.15795L18.2605 8.90503V4.66692C18.2649 4.55768 18.225 4.45129 18.15 4.3716L13.9325 0.135122C13.8579 0.0531929 13.7537 0.0044837 13.6431 0H0.443877C0.213578 0 0.0517578 0.212772 0.0517578 0.443274V23.5567C0.0517578 23.7872 0.213578 24 0.443877 24ZM13.769 14.9537L15.055 16.2397L13.1232 16.8856L13.769 14.9537ZM15.8268 15.8309L14.1776 14.1819L19.4741 8.89728L21.1115 10.5346L15.8268 15.8309ZM21.3322 7.04348L22.9653 8.67656L21.7009 9.94382L20.0651 8.30768L21.3322 7.04348ZM14.0865 1.45088L16.8593 4.22609H14.0865V1.45088ZM0.88654 0.834783H13.2518V4.66692C13.2469 4.77249 13.2862 4.8752 13.3608 4.95C13.4352 5.025 13.5375 5.06515 13.6431 5.06087H17.4257V9.73798L13.2803 13.8858C13.2365 13.9286 13.2039 13.9814 13.1853 14.0397L12.5967 15.8087H3.58389C3.35339 15.8087 3.1665 15.9956 3.1665 16.2261C3.1665 16.4566 3.35339 16.6435 3.58389 16.6435H12.3179L12.0664 17.4053C12.0163 17.5537 12.0554 17.7179 12.1671 17.8278C12.1965 17.8571 12.2297 17.8957 12.2649 17.8957H3.58389C3.35339 17.8957 3.1665 18.0825 3.1665 18.313C3.1665 18.5435 3.35339 18.7304 3.58389 18.7304H14.6971C14.9278 18.7304 15.1145 18.5435 15.1145 18.313C15.1145 18.0825 14.9278 17.8957 14.6971 17.8957H12.6785L15.9595 16.8079C16.0172 16.789 16.0694 16.7558 16.1109 16.7118L17.4257 15.3864V23.1652H0.88654V0.834783Z" fill="white"/>
<path d="M14.6976 19.9826H3.58438C3.35388 19.9826 3.16699 20.1695 3.16699 20.4C3.16699 20.6305 3.35388 20.8174 3.58438 20.8174H14.6976C14.9283 20.8174 15.115 20.6305 15.115 20.4C15.115 20.1695 14.9283 19.9826 14.6976 19.9826Z" fill="white"/>
<path d="M3.58438 14.5565H9.48024C9.71094 14.5565 9.89763 14.3697 9.89763 14.1391C9.89763 13.9086 9.71094 13.7218 9.48024 13.7218H3.58438C3.35388 13.7218 3.16699 13.9086 3.16699 14.1391C3.16699 14.3697 3.35388 14.5565 3.58438 14.5565Z" fill="white"/>
</g>
<defs>
<clipPath id="clip0">
<rect width="24" height="24" fill="white"/>
</clipPath>
</defs>
</svg>
