<svg width="24" height="23" viewBox="0 0 24 23" fill="none" xmlns="http://www.w3.org/2000/svg">
<path d="M23.5969 10.1348L21.5694 8.28738V2.16162C21.5694 1.77185 21.2534 1.45582 20.8636 1.45582H15.9832C15.5935 1.45582 15.2774 1.7718 15.2774 2.16162V2.55415L12.8289 0.323039C12.3562 -0.107695 11.6435 -0.107648 11.1711 0.322992L0.403024 10.1348C0.0244616 10.4798 -0.100648 11.0114 0.084321 11.489C0.269337 11.9666 0.719805 12.2752 1.23201 12.2752H2.95181V22.1059C2.95181 22.4956 3.26779 22.8116 3.6576 22.8116H9.55977C9.94954 22.8116 10.2656 22.4957 10.2656 22.1059V16.137H13.7344V22.1059C13.7344 22.4957 14.0504 22.8117 14.4402 22.8117H20.3421C20.7319 22.8117 21.0479 22.4957 21.0479 22.1059V12.2752H22.768C23.2802 12.2752 23.7307 11.9666 23.9157 11.489C24.1006 11.0114 23.9756 10.4798 23.5969 10.1348ZM20.3421 10.8636C19.9523 10.8636 19.6363 11.1796 19.6363 11.5694V21.4001H15.146V15.4312C15.146 15.0414 14.83 14.7254 14.4402 14.7254H9.55977C9.17001 14.7254 8.85398 15.0414 8.85398 15.4312V21.4001H4.36335V11.5694C4.36335 11.1797 4.04737 10.8636 3.65756 10.8636H1.69898L12 1.47738L15.508 4.67384C15.7146 4.86209 16.0129 4.9106 16.2685 4.79777C16.5241 4.6848 16.6891 4.43159 16.6891 4.15212V2.86741H20.1579V8.5991C20.1579 8.79771 20.2416 8.98704 20.3884 9.12082L22.301 10.8636H20.3421Z" fill="white"/>
</svg>
