<svg width="24" height="24" viewBox="0 0 24 24" fill="none" xmlns="http://www.w3.org/2000/svg">
<g clip-path="url(#clip0)">
<path d="M23.5969 10.7289L21.5694 8.88151V2.75575C21.5694 2.36598 21.2534 2.04995 20.8636 2.04995H15.9832C15.5935 2.04995 15.2774 2.36594 15.2774 2.75575V3.14828L12.8289 0.917171C12.3562 0.486436 11.6435 0.486483 11.1711 0.917124L0.403024 10.729C0.0244616 11.074 -0.100648 11.6055 0.084321 12.0831C0.269337 12.5607 0.719805 12.8693 1.23201 12.8693H2.95181V22.7C2.95181 23.0898 3.26779 23.4058 3.6576 23.4058H9.55978C9.94954 23.4058 10.2656 23.0898 10.2656 22.7V16.7311H13.7344V22.7C13.7344 23.0898 14.0504 23.4058 14.4402 23.4058H20.3421C20.7319 23.4058 21.0479 23.0898 21.0479 22.7V12.8694H22.768C23.2802 12.8694 23.7307 12.5607 23.9157 12.0832C24.1006 11.6055 23.9756 11.074 23.5969 10.7289ZM20.3421 11.4578C19.9523 11.4578 19.6363 11.7737 19.6363 12.1636V21.9942H15.146V16.0253C15.146 15.6355 14.83 15.3195 14.4402 15.3195H9.55978C9.17001 15.3195 8.85398 15.6355 8.85398 16.0253V21.9942H4.36335V12.1636C4.36335 11.7738 4.04737 11.4578 3.65756 11.4578H1.69898L12 2.07151L15.508 5.26797C15.7146 5.45622 16.0129 5.50473 16.2685 5.39191C16.5241 5.27894 16.6891 5.02572 16.6891 4.74625V3.46155H20.1579V9.19323C20.1579 9.39184 20.2416 9.58117 20.3884 9.71495L22.301 11.4578H20.3421Z" fill="black"/>
</g>
<defs>
<clipPath id="clip0">
<rect width="24" height="24" fill="white"/>
</clipPath>
</defs>
</svg>
