<svg width="24" height="24" viewBox="0 0 24 24" fill="none" xmlns="http://www.w3.org/2000/svg">
<path d="M23.8627 4.40231L19.597 0.137297C19.5091 0.0494062 19.3899 0 19.2656 0H5.34375C4.56834 0 3.9375 0.630844 3.9375 1.40625V2.29988C1.63477 3.20316 0 5.44758 0 8.06677C0 8.32561 0.209906 8.53552 0.46875 8.53552H6.19177C6.45061 8.53552 6.66052 8.32561 6.66052 8.06677V2.34375C6.66052 2.08491 6.45061 1.875 6.19177 1.875C5.73998 1.875 5.29955 1.92408 4.875 2.01642V1.40625C4.875 1.14778 5.08528 0.9375 5.34375 0.9375H18.7969V3.79688C18.7969 4.57228 19.4277 5.20312 20.2031 5.20312H23.0625V22.5938C23.0625 22.8522 22.8522 23.0625 22.5938 23.0625H5.34375C5.08528 23.0625 4.875 22.8522 4.875 22.5938V18.5781C4.875 18.3193 4.66509 18.1094 4.40625 18.1094C4.14741 18.1094 3.9375 18.3193 3.9375 18.5781V22.5938C3.9375 23.3692 4.56834 24 5.34375 24H22.5938C23.3692 24 24 23.3692 24 22.5938V4.73377C24 4.60945 23.9506 4.4902 23.8627 4.40231ZM5.72297 2.83327V7.59802H0.958219C1.18233 5.07389 3.19889 3.05737 5.72297 2.83327ZM20.2031 4.26562C19.9447 4.26562 19.7344 4.05534 19.7344 3.79688V1.60031L22.4001 4.26562H20.2031Z" fill="white"/>
<path d="M4.73761 16.5436C4.65047 16.4564 4.52953 16.4062 4.40625 16.4062C4.28297 16.4062 4.16203 16.4564 4.07484 16.5436C3.98766 16.6308 3.9375 16.7517 3.9375 16.875C3.9375 16.9983 3.98761 17.1192 4.07484 17.2064C4.16203 17.2936 4.28297 17.3438 4.40625 17.3438C4.52953 17.3438 4.65047 17.2936 4.73761 17.2064C4.82484 17.1192 4.875 16.9983 4.875 16.875C4.875 16.7517 4.82484 16.6308 4.73761 16.5436Z" fill="white"/>
<path d="M7.87043 3.55403C7.61159 3.55403 7.40168 3.76394 7.40168 4.02278V9.277H2.14746C1.88862 9.277 1.67871 9.48691 1.67871 9.74575C1.67871 13.1599 4.45629 15.9375 7.87043 15.9375C11.2846 15.9375 14.0622 13.1599 14.0622 9.74575C14.0622 6.33161 11.2846 3.55403 7.87043 3.55403ZM8.33918 4.5123C9.43652 4.6097 10.4378 5.04611 11.2377 5.71558L8.33918 8.61409V4.5123ZM7.87043 15C5.13119 15 2.87477 12.893 2.63698 10.2145H7.87043C7.9998 10.2145 8.1169 10.1621 8.20174 10.0773C8.20179 10.0773 8.20184 10.0773 8.20193 10.0772L11.9008 6.37839C12.6644 7.29091 13.1247 8.46559 13.1247 9.74575C13.1247 12.643 10.7676 15 7.87043 15Z" fill="white"/>
<path d="M20.5342 14.794C19.7588 14.794 19.128 15.4248 19.128 16.2003C19.128 16.3946 19.1677 16.5798 19.2392 16.7483L16.5386 19.4489C16.353 19.3585 16.1447 19.3076 15.9248 19.3076C15.7101 19.3076 15.5065 19.3562 15.3243 19.4426L13.531 17.6493C13.5931 17.4906 13.6276 17.3182 13.6276 17.1377C13.6276 16.3623 12.9968 15.7315 12.2214 15.7315C11.446 15.7315 10.8151 16.3623 10.8151 17.1377C10.8151 17.3478 10.8618 17.5471 10.9447 17.7263L9.22466 19.4464C9.04143 19.3587 8.8364 19.3096 8.62012 19.3096C7.84471 19.3096 7.21387 19.9404 7.21387 20.7158C7.21387 21.4912 7.84471 22.1221 8.62012 22.1221C9.39552 22.1221 10.0264 21.4912 10.0264 20.7158C10.0264 20.4985 9.97677 20.2925 9.88837 20.1086L11.5988 18.3981C11.7867 18.4913 11.998 18.544 12.2215 18.544C12.4739 18.544 12.7108 18.4768 12.9157 18.3599L14.6585 20.1026C14.5689 20.2876 14.5185 20.4949 14.5185 20.7139C14.5185 21.4893 15.1494 22.1201 15.9248 22.1201C16.7002 22.1201 17.331 21.4893 17.331 20.7139C17.331 20.5002 17.2829 20.2976 17.1973 20.1161L19.8727 17.4408C20.07 17.5464 20.2952 17.6065 20.5342 17.6065C21.3097 17.6065 21.9405 16.9757 21.9405 16.2003C21.9405 15.4248 21.3097 14.794 20.5342 14.794ZM8.62007 21.1846C8.3616 21.1846 8.15132 20.9743 8.15132 20.7159C8.15132 20.4574 8.3616 20.2471 8.62007 20.2471C8.74593 20.2471 8.86007 20.2972 8.94435 20.3782C8.94623 20.3802 8.94787 20.3823 8.94979 20.3842C8.95204 20.3865 8.95448 20.3883 8.95677 20.3905C9.03834 20.4749 9.08882 20.5895 9.08882 20.7159C9.08882 20.9743 8.87854 21.1846 8.62007 21.1846ZM12.2214 17.6065C11.9629 17.6065 11.7526 17.3962 11.7526 17.1377C11.7526 16.8792 11.9629 16.669 12.2214 16.669C12.4799 16.669 12.6901 16.8792 12.6901 17.1377C12.6901 17.3962 12.4799 17.6065 12.2214 17.6065ZM15.9247 21.1826C15.6662 21.1826 15.4559 20.9724 15.4559 20.7139C15.4559 20.4554 15.6662 20.2451 15.9247 20.2451C16.1832 20.2451 16.3934 20.4554 16.3934 20.7139C16.3934 20.9724 16.1832 21.1826 15.9247 21.1826ZM20.5342 16.669C20.2757 16.669 20.0654 16.4587 20.0654 16.2002C20.0654 15.9417 20.2757 15.7315 20.5342 15.7315C20.7926 15.7315 21.0029 15.9417 21.0029 16.2002C21.0029 16.4587 20.7926 16.669 20.5342 16.669Z" fill="white"/>
<path d="M18.1918 11.0156H15.7178C15.4589 11.0156 15.249 11.2255 15.249 11.4844C15.249 11.7432 15.4589 11.9531 15.7178 11.9531H18.1918C18.4506 11.9531 18.6605 11.7432 18.6605 11.4844C18.6605 11.2255 18.4506 11.0156 18.1918 11.0156Z" fill="white"/>
<path d="M20.6575 11.153C20.5704 11.0658 20.4495 11.0156 20.3262 11.0156C20.2029 11.0156 20.082 11.0657 19.9948 11.153C19.9076 11.2402 19.8574 11.3611 19.8574 11.4844C19.8574 11.6077 19.9075 11.7286 19.9948 11.8157C20.082 11.9029 20.2024 11.9531 20.3262 11.9531C20.4495 11.9531 20.5704 11.903 20.6575 11.8157C20.7447 11.7286 20.7949 11.6077 20.7949 11.4844C20.7949 11.3611 20.7448 11.2402 20.6575 11.153Z" fill="white"/>
<path d="M21.4437 6.51562H15.7178C15.4589 6.51562 15.249 6.72553 15.249 6.98438C15.249 7.24322 15.4589 7.45312 15.7178 7.45312H21.4437C21.7026 7.45312 21.9125 7.24322 21.9125 6.98438C21.9125 6.72553 21.7026 6.51562 21.4437 6.51562Z" fill="white"/>
<path d="M21.4437 8.76562H15.7178C15.4589 8.76562 15.249 8.97553 15.249 9.23438C15.249 9.49322 15.4589 9.70312 15.7178 9.70312H21.4437C21.7026 9.70312 21.9125 9.49322 21.9125 9.23438C21.9125 8.97553 21.7026 8.76562 21.4437 8.76562Z" fill="white"/>
</svg>
