<svg width="24" height="24" viewBox="0 0 24 24" fill="none" xmlns="http://www.w3.org/2000/svg">
<path d="M23.8627 4.40231L19.597 0.137297C19.5091 0.0494062 19.3899 0 19.2656 0H5.34375C4.56834 0 3.9375 0.630844 3.9375 1.40625V2.29988C1.63477 3.20316 0 5.44758 0 8.06677C0 8.32561 0.209906 8.53552 0.46875 8.53552H6.19177C6.45061 8.53552 6.66052 8.32561 6.66052 8.06677V2.34375C6.66052 2.08491 6.45061 1.875 6.19177 1.875C5.73998 1.875 5.29955 1.92408 4.875 2.01642V1.40625C4.875 1.14778 5.08528 0.9375 5.34375 0.9375H18.7969V3.79688C18.7969 4.57228 19.4277 5.20312 20.2031 5.20312H23.0625V22.5938C23.0625 22.8522 22.8522 23.0625 22.5938 23.0625H5.34375C5.08528 23.0625 4.875 22.8522 4.875 22.5938V18.5781C4.875 18.3193 4.66509 18.1094 4.40625 18.1094C4.14741 18.1094 3.9375 18.3193 3.9375 18.5781V22.5938C3.9375 23.3692 4.56834 24 5.34375 24H22.5938C23.3692 24 24 23.3692 24 22.5938V4.73377C24 4.60945 23.9506 4.4902 23.8627 4.40231ZM5.72297 2.83327V7.59802H0.958219C1.18233 5.07389 3.19889 3.05737 5.72297 2.83327ZM20.2031 4.26562C19.9447 4.26562 19.7344 4.05534 19.7344 3.79688V1.60031L22.4001 4.26562H20.2031Z" fill="black"/>
<path d="M4.73761 16.5436C4.65047 16.4564 4.52953 16.4062 4.40625 16.4062C4.28297 16.4062 4.16203 16.4564 4.07484 16.5436C3.98766 16.6308 3.9375 16.7517 3.9375 16.875C3.9375 16.9983 3.98761 17.1192 4.07484 17.2064C4.16203 17.2936 4.28297 17.3438 4.40625 17.3438C4.52953 17.3438 4.65047 17.2936 4.73761 17.2064C4.82484 17.1192 4.875 16.9983 4.875 16.875C4.875 16.7517 4.82484 16.6308 4.73761 16.5436Z" fill="black"/>
<path d="M7.87043 3.55469C7.61159 3.55469 7.40168 3.76459 7.40168 4.02344V9.27766H2.14746C1.88862 9.27766 1.67871 9.48756 1.67871 9.74641C1.67871 13.1605 4.45629 15.9382 7.87043 15.9382C11.2846 15.9382 14.0622 13.1605 14.0622 9.74641C14.0622 6.33227 11.2846 3.55469 7.87043 3.55469ZM8.33918 4.51295C9.43652 4.61036 10.4378 5.04677 11.2377 5.71623L8.33918 8.61475V4.51295ZM7.87043 15.0007C5.1312 15.0007 2.87477 12.8937 2.63698 10.2152H7.87043C7.9998 10.2152 8.1169 10.1628 8.20174 10.078C8.20179 10.078 8.20184 10.078 8.20193 10.0779L11.9008 6.37905C12.6644 7.29156 13.1247 8.46625 13.1247 9.74641C13.1247 12.6436 10.7676 15.0007 7.87043 15.0007Z" fill="black"/>
<path d="M20.5342 14.7949C19.7588 14.7949 19.128 15.4258 19.128 16.2012C19.128 16.3955 19.1676 16.5807 19.2392 16.7492L16.5386 19.4498C16.353 19.3594 16.1447 19.3086 15.9248 19.3086C15.7101 19.3086 15.5065 19.3571 15.3243 19.4435L13.531 17.6502C13.5931 17.4915 13.6276 17.3191 13.6276 17.1386C13.6276 16.3632 12.9968 15.7324 12.2214 15.7324C11.446 15.7324 10.8151 16.3632 10.8151 17.1386C10.8151 17.3487 10.8618 17.548 10.9447 17.7272L9.22466 19.4473C9.04143 19.3597 8.8364 19.3105 8.62012 19.3105C7.84471 19.3105 7.21387 19.9413 7.21387 20.7167C7.21387 21.4921 7.84471 22.123 8.62012 22.123C9.39552 22.123 10.0264 21.4921 10.0264 20.7167C10.0264 20.4994 9.97677 20.2934 9.88837 20.1095L11.5988 18.399C11.7867 18.4922 11.998 18.5449 12.2215 18.5449C12.4739 18.5449 12.7108 18.4777 12.9157 18.3608L14.6585 20.1036C14.5689 20.2885 14.5185 20.4959 14.5185 20.7148C14.5185 21.4902 15.1494 22.1211 15.9248 22.1211C16.7002 22.1211 17.331 21.4902 17.331 20.7148C17.331 20.5012 17.2829 20.2986 17.1973 20.1171L19.8727 17.4417C20.07 17.5473 20.2952 17.6074 20.5342 17.6074C21.3096 17.6074 21.9405 16.9766 21.9405 16.2012C21.9405 15.4258 21.3096 14.7949 20.5342 14.7949ZM8.62007 21.1855C8.3616 21.1855 8.15132 20.9752 8.15132 20.7168C8.15132 20.4583 8.3616 20.248 8.62007 20.248C8.74593 20.248 8.86007 20.2981 8.94435 20.3791C8.94623 20.3811 8.94787 20.3832 8.94979 20.3851C8.95204 20.3874 8.95448 20.3893 8.95677 20.3914C9.03834 20.4758 9.08882 20.5905 9.08882 20.7168C9.08882 20.9752 8.87854 21.1855 8.62007 21.1855ZM12.2214 17.6074C11.9629 17.6074 11.7526 17.3971 11.7526 17.1386C11.7526 16.8802 11.9629 16.6699 12.2214 16.6699C12.4799 16.6699 12.6901 16.8802 12.6901 17.1386C12.6901 17.3971 12.4799 17.6074 12.2214 17.6074ZM15.9247 21.1836C15.6662 21.1836 15.4559 20.9733 15.4559 20.7148C15.4559 20.4563 15.6662 20.2461 15.9247 20.2461C16.1832 20.2461 16.3934 20.4563 16.3934 20.7148C16.3934 20.9733 16.1832 21.1836 15.9247 21.1836ZM20.5341 16.6699C20.2757 16.6699 20.0654 16.4596 20.0654 16.2011C20.0654 15.9427 20.2757 15.7324 20.5341 15.7324C20.7926 15.7324 21.0029 15.9427 21.0029 16.2011C21.0029 16.4596 20.7926 16.6699 20.5341 16.6699Z" fill="black"/>
<path d="M18.1918 11.0156H15.7178C15.4589 11.0156 15.249 11.2255 15.249 11.4844C15.249 11.7432 15.4589 11.9531 15.7178 11.9531H18.1918C18.4506 11.9531 18.6605 11.7432 18.6605 11.4844C18.6605 11.2255 18.4506 11.0156 18.1918 11.0156Z" fill="black"/>
<path d="M20.6575 11.153C20.5704 11.0658 20.4495 11.0156 20.3262 11.0156C20.2029 11.0156 20.082 11.0657 19.9948 11.153C19.9076 11.2402 19.8574 11.3611 19.8574 11.4844C19.8574 11.6077 19.9075 11.7286 19.9948 11.8157C20.082 11.9029 20.2024 11.9531 20.3262 11.9531C20.4495 11.9531 20.5704 11.903 20.6575 11.8157C20.7447 11.7286 20.7949 11.6077 20.7949 11.4844C20.7949 11.3611 20.7448 11.2402 20.6575 11.153Z" fill="black"/>
<path d="M21.4437 6.51562H15.7178C15.4589 6.51562 15.249 6.72553 15.249 6.98438C15.249 7.24322 15.4589 7.45312 15.7178 7.45312H21.4437C21.7026 7.45312 21.9125 7.24322 21.9125 6.98438C21.9125 6.72553 21.7026 6.51562 21.4437 6.51562Z" fill="black"/>
<path d="M21.4437 8.76562H15.7178C15.4589 8.76562 15.249 8.97553 15.249 9.23438C15.249 9.49322 15.4589 9.70312 15.7178 9.70312H21.4437C21.7026 9.70312 21.9125 9.49322 21.9125 9.23438C21.9125 8.97553 21.7026 8.76562 21.4437 8.76562Z" fill="black"/>
</svg>
