<svg width="24" height="24" viewBox="0 0 24 24" fill="none" xmlns="http://www.w3.org/2000/svg">
<path d="M9.20039 8H8.40039V8.8H9.20039V8Z" fill="white"/>
<path d="M9.20039 9.60001H8.40039V10.4H9.20039V9.60001Z" fill="white"/>
<path d="M9.20039 11.2H8.40039V12H9.20039V11.2Z" fill="white"/>
<path d="M9.20039 12.8H8.40039V13.6H9.20039V12.8Z" fill="white"/>
<path d="M10.8 8H10V8.8H10.8V8Z" fill="white"/>
<path d="M10.8 9.60001H10V10.4H10.8V9.60001Z" fill="white"/>
<path d="M10.8 11.2H10V12H10.8V11.2Z" fill="white"/>
<path d="M10.8 12.8H10V13.6H10.8V12.8Z" fill="white"/>
<path d="M12.3996 8H11.5996V8.8H12.3996V8Z" fill="white"/>
<path d="M12.3996 9.60001H11.5996V10.4H12.3996V9.60001Z" fill="white"/>
<path d="M12.3996 11.2H11.5996V12H12.3996V11.2Z" fill="white"/>
<path d="M12.3996 12.8H11.5996V13.6H12.3996V12.8Z" fill="white"/>
<path d="M14.0002 8H13.2002V8.8H14.0002V8Z" fill="white"/>
<path d="M10.8 6.39999H10V7.19999H10.8V6.39999Z" fill="white"/>
<path d="M12.3996 6.39999H11.5996V7.19999H12.3996V6.39999Z" fill="white"/>
<path d="M14.0002 6.39999H13.2002V7.19999H14.0002V6.39999Z" fill="white"/>
<path d="M14.0002 9.60001H13.2002V10.4H14.0002V9.60001Z" fill="white"/>
<path d="M14.0002 11.2H13.2002V12H14.0002V11.2Z" fill="white"/>
<path d="M14.0002 12.8H13.2002V13.6H14.0002V12.8Z" fill="white"/>
<path d="M15.5998 8H14.7998V8.8H15.5998V8Z" fill="white"/>
<path d="M15.5998 9.60001H14.7998V10.4H15.5998V9.60001Z" fill="white"/>
<path d="M15.5998 11.2H14.7998V12H15.5998V11.2Z" fill="white"/>
<path d="M15.5998 12.8H14.7998V13.6H15.5998V12.8Z" fill="white"/>
<path d="M23.6005 6C23.6003 6 23.6002 6 23.6 6H17.6V0.4C17.6002 0.1792 17.4213 0.000150094 17.2005 9.42575e-08C17.2003 9.42575e-08 17.2001 9.42575e-08 17.2 9.42575e-08H6.8C6.5792 -0.000149906 6.40015 0.17875 6.4 0.39955C6.4 0.3997 6.4 0.39985 6.4 0.4V6H0.4C0.1792 5.99985 0.000150094 6.17875 9.42575e-08 6.39955C9.42575e-08 6.3997 9.42575e-08 6.39985 9.42575e-08 6.4V20.8C-0.000149906 21.0208 0.17875 21.1999 0.39955 21.2C0.3997 21.2 0.39985 21.2 0.4 21.2H1.23615C1.21295 21.3321 1.20085 21.4659 1.2 21.6V23.6C1.19985 23.8208 1.37875 23.9999 1.59955 24C1.5997 24 1.59985 24 1.6 24H22.4C22.6208 24.0002 22.7999 23.8213 22.8 23.6005C22.8 23.6003 22.8 23.6002 22.8 23.6V21.6C22.7992 21.4659 22.7871 21.3321 22.7639 21.2H23.6C23.8208 21.2001 23.9999 21.0212 24 20.8005C24 20.8003 24 20.8001 24 20.8V6.4C24.0002 6.1792 23.8213 6.00015 23.6005 6ZM17.2 17.2C17.2 17.6418 16.8419 18 16.4 18C15.9581 18 15.6 17.6418 15.6 17.2C15.6 16.7582 15.9581 16.4 16.4 16.4C16.8416 16.4006 17.1994 16.7584 17.2 17.2ZM7.6 16.4C8.04185 16.4 8.4 16.7582 8.4 17.2C8.4 17.6418 8.04185 18 7.6 18C7.15815 18 6.8 17.6418 6.8 17.2C6.80055 16.7584 7.1584 16.4006 7.6 16.4ZM5.2 23.2H2V21.6C2 20.7164 2.71635 20 3.6 20C4.48365 20 5.2 20.7164 5.2 21.6V23.2ZM2.8 18.4C2.8 17.9582 3.15815 17.6 3.6 17.6C4.04185 17.6 4.4 17.9582 4.4 18.4C4.4 18.8419 4.04185 19.2 3.6 19.2C3.1584 19.1994 2.80055 18.8416 2.8 18.4ZM5.2606 19.8713C5.10975 19.7257 4.9406 19.6006 4.7574 19.4988C5.3675 18.8596 5.34395 17.8468 4.70475 17.2367C4.06555 16.6265 3.05275 16.6501 2.4426 17.2893C1.85245 17.9076 1.85245 18.8805 2.4426 19.4988C2.0608 19.7107 1.7436 20.0221 1.5247 20.4H0.8V6.8H6.4V16.1528C5.8507 16.7691 5.86925 17.7048 6.4426 18.2988C5.8426 18.6307 5.41265 19.2027 5.2606 19.8713ZM9.2 23.2H6V20.4C6 19.5163 6.71635 18.8 7.6 18.8C8.48365 18.8 9.2 19.5163 9.2 20.4V23.2ZM14 23.2H10V20.4C10 19.2955 10.8955 18.4 12 18.4C13.1046 18.4 14 19.2955 14 20.4V23.2ZM10.8 16.4C10.8 15.7373 11.3372 15.2 12 15.2C12.6628 15.2 13.2 15.7373 13.2 16.4C13.2 17.0627 12.6628 17.6 12 17.6C11.3376 17.5993 10.8007 17.0625 10.8 16.4ZM14.4361 19.0247C14.1682 18.5525 13.7698 18.1678 13.2885 17.9167C14.1333 17.2052 14.2413 15.9434 13.5297 15.0986C12.8182 14.2537 11.5564 14.1457 10.7116 14.8572C9.8667 15.5688 9.7587 16.8306 10.4703 17.6755C10.5436 17.7626 10.6244 17.8433 10.7116 17.9167C10.2303 18.1678 9.83175 18.5525 9.5639 19.0247C9.3536 18.7248 9.0778 18.4765 8.7574 18.2988C9.37065 17.6715 9.35925 16.6657 8.73185 16.0525C8.3279 15.6576 7.74465 15.5069 7.2 15.6568V0.8H16.8V15.6568C16.6697 15.6208 16.5352 15.6018 16.4 15.6C15.5187 15.5977 14.8024 16.3102 14.8 17.1915C14.7989 17.604 14.9576 18.0008 15.2426 18.2988C14.9222 18.4765 14.6464 18.7248 14.4361 19.0247ZM18 21.6V23.2H14.8V20.4C14.8 19.5163 15.5163 18.8 16.4 18.8C17.2836 18.8 18 19.5163 18 20.4V21.6ZM22 23.2H18.8V21.6C18.8 20.7164 19.5163 20 20.4 20C21.2836 20 22 20.7164 22 21.6V23.2ZM19.6 18.4C19.6 17.9582 19.9582 17.6 20.4 17.6C20.8419 17.6 21.2 17.9582 21.2 18.4C21.2 18.8419 20.8419 19.2 20.4 19.2C19.9584 19.1994 19.6005 18.8416 19.6 18.4ZM23.2 20.4H22.4753C22.2564 20.0222 21.9392 19.7107 21.5574 19.4988C22.1675 18.8596 22.1439 17.8468 21.5048 17.2367C20.8656 16.6266 19.8527 16.6501 19.2426 17.2893C18.6525 17.9076 18.6525 18.8805 19.2426 19.4988C19.0594 19.6005 18.8902 19.7257 18.7394 19.8712C18.5874 19.2026 18.1574 18.6306 17.5574 18.2987C18.1308 17.7047 18.1494 16.7691 17.6 16.1528V6.8H23.2001V20.4H23.2Z" fill="white"/>
<path d="M19.5998 9.20001H18.7998V15.6H19.5998V9.20001Z" fill="white"/>
<path d="M22.0002 9.20001H21.2002V15.6H22.0002V9.20001Z" fill="white"/>
<path d="M2.8 9.20001H2V15.6H2.8V9.20001Z" fill="white"/>
<path d="M5.20039 9.20001H4.40039V15.6H5.20039V9.20001Z" fill="white"/>
<path d="M14.4006 1.60001C14.4005 1.60001 14.4003 1.60001 14.4002 1.60001H9.6002C9.3794 1.59986 9.20035 1.77876 9.2002 1.99956C9.2002 1.99971 9.2002 1.99986 9.2002 2.00001V5.20001C9.20005 5.42081 9.37895 5.59986 9.59975 5.60001C9.5999 5.60001 9.60005 5.60001 9.6002 5.60001H14.4002C14.621 5.60016 14.8 5.42126 14.8002 5.20046C14.8002 5.20031 14.8002 5.20016 14.8002 5.20001V2.00001C14.8003 1.77921 14.6214 1.60016 14.4006 1.60001ZM14.0002 4.80001H10.0002V2.40001H14.0002V4.80001Z" fill="white"/>
</svg>
