<svg width="24" height="24" viewBox="0 0 24 24" fill="none" xmlns="http://www.w3.org/2000/svg">
<path d="M12 5.71875C11.6117 5.71875 11.2969 6.03356 11.2969 6.42188C11.2969 6.81019 11.6117 7.125 12 7.125H17.625C18.0133 7.125 18.3281 6.81019 18.3281 6.42188C18.3281 6.03356 18.0133 5.71875 17.625 5.71875H12Z" fill="white"/>
<path d="M17.625 8.53125H12C11.6117 8.53125 11.2969 8.84606 11.2969 9.23438C11.2969 9.62269 11.6117 9.9375 12 9.9375H17.625C18.0133 9.9375 18.3281 9.62269 18.3281 9.23438C18.3281 8.84606 18.0133 8.53125 17.625 8.53125Z" fill="white"/>
<path d="M17.625 11.3438H12C11.6117 11.3438 11.2969 11.6586 11.2969 12.0469C11.2969 12.4352 11.6117 12.75 12 12.75H17.625C18.0133 12.75 18.3281 12.4352 18.3281 12.0469C18.3281 11.6586 18.0133 11.3438 17.625 11.3438Z" fill="white"/>
<path d="M17.625 14.1562H12C11.6117 14.1562 11.2969 14.4711 11.2969 14.8594C11.2969 15.2477 11.6117 15.5625 12 15.5625H17.625C18.0133 15.5625 18.3281 15.2477 18.3281 14.8594C18.3281 14.4711 18.0133 14.1562 17.625 14.1562Z" fill="white"/>
<path d="M17.625 16.9688H6.375C5.98669 16.9688 5.67188 17.2836 5.67188 17.6719C5.67188 18.0602 5.98669 18.375 6.375 18.375H17.625C18.0133 18.375 18.3281 18.0602 18.3281 17.6719C18.3281 17.2836 18.0133 16.9688 17.625 16.9688Z" fill="white"/>
<path d="M13.875 19.7812H6.375C5.98669 19.7812 5.67188 20.0961 5.67188 20.4844C5.67188 20.8727 5.98669 21.1875 6.375 21.1875H13.875C14.2633 21.1875 14.5781 20.8727 14.5781 20.4844C14.5781 20.0961 14.2633 19.7812 13.875 19.7812Z" fill="white"/>
<path d="M20.4375 1.5H15.9844V0.703125C15.9844 0.314812 15.6696 0 15.2812 0H8.71875C8.33044 0 8.01562 0.314812 8.01562 0.703125V1.5H3.5625C3.17419 1.5 2.85938 1.81481 2.85938 2.20312V23.2969C2.85938 23.6852 3.17419 24 3.5625 24H20.4375C20.8258 24 21.1406 23.6852 21.1406 23.2969V2.20312C21.1406 1.81481 20.8258 1.5 20.4375 1.5ZM9.42188 1.40625H14.5781V2.90625H9.42188V1.40625ZM19.7344 22.5938H4.26562V2.90625H8.01562V3.60938C8.01562 3.99769 8.33044 4.3125 8.71875 4.3125H15.2812C15.6696 4.3125 15.9844 3.99769 15.9844 3.60938V2.90625H19.7344V22.5938Z" fill="white"/>
<path d="M6.375 9.9375H9.1875C9.57581 9.9375 9.89062 9.62269 9.89062 9.23438V6.42188C9.89062 6.03356 9.57581 5.71875 9.1875 5.71875H6.375C5.98669 5.71875 5.67188 6.03356 5.67188 6.42188V9.23438C5.67188 9.62269 5.98669 9.9375 6.375 9.9375ZM7.07812 7.125H8.48438V8.53125H7.07812V7.125Z" fill="white"/>
<path d="M6.375 15.5625H9.1875C9.57581 15.5625 9.89062 15.2477 9.89062 14.8594V12.0469C9.89062 11.6586 9.57581 11.3438 9.1875 11.3438H6.375C5.98669 11.3438 5.67188 11.6586 5.67188 12.0469V14.8594C5.67188 15.2477 5.98669 15.5625 6.375 15.5625ZM7.07812 12.75H8.48438V14.1562H7.07812V12.75Z" fill="white"/>
</svg>
