<svg width="24" height="24" viewBox="0 0 24 24" fill="none" xmlns="http://www.w3.org/2000/svg">
<path d="M23.3272 11.954H22.1688V9.95236C22.1688 9.66136 21.9329 9.42548 21.6419 9.42548H18.5181C18.2194 8.02786 17.4738 6.75544 16.3877 5.80481C15.3021 4.85456 13.9412 4.28648 12.5106 4.17684V3.55627H15.7048C15.9958 3.55627 16.2316 3.32039 16.2316 3.02939V0.526875C16.2316 0.235875 15.9958 0 15.7048 0H11.9837C11.6927 0 11.4568 0.235875 11.4568 0.526875V1.82648V3.02944V4.17952C10.0382 4.2953 8.68997 4.86197 7.61273 5.80486C6.52669 6.75548 5.78105 8.02786 5.48241 9.42553H2.35861C2.06761 9.42553 1.83173 9.66141 1.83173 9.95241V11.954H0.673359C0.382359 11.954 0.146484 12.1899 0.146484 12.4809V23.4731C0.146484 23.7641 0.382359 24 0.673359 24H10.2824H13.7181H23.3271C23.6181 24 23.854 23.7641 23.854 23.4731V12.4808C23.854 12.1898 23.6182 11.954 23.3272 11.954ZM12.5106 1.82644V1.0537H15.178V2.50256H12.5106V1.82644ZM12.0003 5.21067C14.5711 5.21067 16.8084 6.98447 17.436 9.42553H6.56456C7.19217 6.98447 9.42952 5.21067 12.0003 5.21067ZM2.88548 10.4792H5.92355H18.0771H21.1151V11.954H2.88548V10.4792ZM13.1913 22.9463H10.8093V18.997H13.1913V22.9463ZM22.8003 22.9463H16.4786V16.2208C16.4786 15.9298 16.2427 15.6939 15.9517 15.6939C15.6607 15.6939 15.4248 15.9298 15.4248 16.2208V22.9463H14.245V18.4702C14.245 18.1792 14.0091 17.9433 13.7181 17.9433H10.2824C9.99136 17.9433 9.75548 18.1792 9.75548 18.4702V22.9463H8.57564V16.2208C8.57564 15.9298 8.33977 15.6939 8.04877 15.6939C7.75777 15.6939 7.52189 15.9298 7.52189 16.2208V22.9463H1.20023V13.0077H2.35866H21.6419H22.8003V22.9463H22.8003Z" fill="white"/>
<path d="M16.4685 14.3793C16.4616 14.3456 16.4511 14.3123 16.4379 14.2808C16.4247 14.2486 16.4084 14.218 16.3894 14.1896C16.3705 14.1607 16.3483 14.1338 16.3241 14.1096C16.2999 14.0853 16.273 14.0632 16.244 14.0442C16.2156 14.0252 16.185 14.0089 16.1529 13.9958C16.1213 13.9826 16.0881 13.9726 16.0544 13.9657C15.9864 13.952 15.9169 13.952 15.8489 13.9657C15.8152 13.9726 15.782 13.9826 15.7504 13.9958C15.7182 14.0089 15.6877 14.0252 15.6593 14.0442C15.6303 14.0632 15.6034 14.0853 15.5792 14.1096C15.555 14.1338 15.5329 14.1607 15.5139 14.1896C15.4949 14.2181 15.4786 14.2486 15.4654 14.2808C15.4522 14.3124 15.4417 14.3455 15.4354 14.3793C15.4285 14.413 15.4248 14.4478 15.4248 14.482C15.4248 14.5163 15.4285 14.551 15.4354 14.5853C15.4417 14.6185 15.4522 14.6517 15.4654 14.6838C15.4786 14.7154 15.4949 14.746 15.5139 14.7744C15.5329 14.8034 15.555 14.8303 15.5792 14.8545C15.6034 14.8787 15.6303 14.9009 15.6593 14.9204C15.6877 14.9394 15.7183 14.9557 15.7504 14.9688C15.782 14.982 15.8152 14.992 15.8489 14.9989C15.8826 15.0057 15.9174 15.0089 15.9517 15.0089C15.9859 15.0089 16.0207 15.0058 16.0544 14.9989C16.0882 14.992 16.1213 14.982 16.153 14.9688C16.1851 14.9557 16.2157 14.9394 16.2441 14.9204C16.2731 14.9009 16.2999 14.8787 16.3242 14.8545C16.3484 14.8303 16.3705 14.8034 16.3895 14.7744C16.4085 14.746 16.4248 14.7154 16.438 14.6838C16.4511 14.6517 16.4617 14.6185 16.4685 14.5853C16.4754 14.551 16.4786 14.5163 16.4786 14.482C16.4785 14.4478 16.4753 14.413 16.4685 14.3793Z" fill="white"/>
<path d="M8.56463 14.3793C8.55826 14.3456 8.54776 14.3123 8.53459 14.2808C8.52141 14.2486 8.5051 14.218 8.48612 14.1896C8.46713 14.1607 8.44501 14.1338 8.42077 14.1096C8.39654 14.0853 8.36968 14.0632 8.34071 14.0442C8.31226 14.0252 8.2817 14.0089 8.2501 13.9958C8.21795 13.9826 8.18476 13.9726 8.15106 13.9657C8.08361 13.952 8.01353 13.952 7.94561 13.9657C7.9119 13.9726 7.87872 13.9826 7.84708 13.9958C7.81492 14.0089 7.7844 14.0252 7.75595 14.0442C7.72698 14.0632 7.70012 14.0853 7.67589 14.1096C7.65166 14.1338 7.62953 14.1607 7.61055 14.1896C7.59156 14.2181 7.57525 14.2486 7.56208 14.2808C7.54891 14.3124 7.53836 14.3455 7.53203 14.3793C7.52519 14.413 7.52148 14.4478 7.52148 14.482C7.52148 14.6211 7.57787 14.7565 7.67584 14.8545C7.70008 14.8787 7.72694 14.9009 7.7559 14.9204C7.78436 14.9394 7.81492 14.9557 7.84703 14.9688C7.87862 14.982 7.91181 14.992 7.94556 14.9989C7.97926 15.0057 8.01404 15.0089 8.04831 15.0089C8.08257 15.0089 8.11731 15.0058 8.15106 14.9989C8.18481 14.992 8.21795 14.982 8.2501 14.9688C8.2817 14.9557 8.31226 14.9394 8.34071 14.9204C8.36968 14.9009 8.39654 14.8787 8.42077 14.8545C8.51879 14.7565 8.57513 14.6211 8.57513 14.482C8.57518 14.4478 8.57148 14.413 8.56463 14.3793Z" fill="white"/>
<path d="M6.03991 13.8243H3.06301C2.77201 13.8243 2.53613 14.0602 2.53613 14.3512V16.6167C2.53613 16.9077 2.77201 17.1435 3.06301 17.1435H6.03991C6.33091 17.1435 6.56678 16.9077 6.56678 16.6167V14.3512C6.56673 14.0602 6.33091 13.8243 6.03991 13.8243ZM5.51303 16.0898H3.58984V14.878H5.51303V16.0898Z" fill="white"/>
<path d="M6.03991 18.5237H3.06301C2.77201 18.5237 2.53613 18.7596 2.53613 19.0506V21.3161C2.53613 21.6071 2.77201 21.8429 3.06301 21.8429H6.03991C6.33091 21.8429 6.56678 21.6071 6.56678 21.3161V19.0506C6.56673 18.7596 6.33091 18.5237 6.03991 18.5237ZM5.51303 20.7892H3.58984V19.5774H5.51303V20.7892Z" fill="white"/>
<path d="M13.4882 13.8243H10.5113C10.2203 13.8243 9.98438 14.0602 9.98438 14.3512V16.6167C9.98438 16.9077 10.2203 17.1435 10.5113 17.1435H13.4882C13.7792 17.1435 14.0151 16.9077 14.0151 16.6167V14.3512C14.0151 14.0602 13.7792 13.8243 13.4882 13.8243ZM12.9614 16.0898H11.0381V14.878H12.9614V16.0898Z" fill="white"/>
<path d="M20.9364 13.8243H17.9595C17.6685 13.8243 17.4326 14.0602 17.4326 14.3512V16.6167C17.4326 16.9077 17.6685 17.1435 17.9595 17.1435H20.9364C21.2274 17.1435 21.4633 16.9077 21.4633 16.6167V14.3512C21.4633 14.0602 21.2274 13.8243 20.9364 13.8243ZM20.4096 16.0898H18.4864V14.878H20.4096V16.0898Z" fill="white"/>
<path d="M20.9364 18.5237H17.9595C17.6685 18.5237 17.4326 18.7596 17.4326 19.0506V21.3161C17.4326 21.6071 17.6685 21.8429 17.9595 21.8429H20.9364C21.2274 21.8429 21.4633 21.6071 21.4633 21.3161V19.0506C21.4633 18.7596 21.2274 18.5237 20.9364 18.5237ZM20.4096 20.7892H18.4864V19.5774H20.4096V20.7892Z" fill="white"/>
</svg>
