<svg width="24" height="24" viewBox="0 0 24 24" fill="none" xmlns="http://www.w3.org/2000/svg">
<g clip-path="url(#clip0)">
<path d="M23.1807 11.954H22.0223V9.95236C22.0223 9.66136 21.7864 9.42548 21.4954 9.42548H18.3716C18.0729 8.02786 17.3273 6.75544 16.2413 5.80481C15.1556 4.85456 13.7948 4.28648 12.3641 4.17684V3.55627H15.5583C15.8493 3.55627 16.0852 3.32039 16.0852 3.02939V0.526875C16.0852 0.235875 15.8493 0 15.5583 0H11.8372C11.5462 0 11.3103 0.235875 11.3103 0.526875V1.82648V3.02944V4.17952C9.89175 4.2953 8.54348 4.86197 7.46625 5.80486C6.3802 6.75548 5.63456 8.02786 5.33592 9.42553H2.21213C1.92113 9.42553 1.68525 9.66141 1.68525 9.95241V11.954H0.526875C0.235875 11.954 0 12.1899 0 12.4809V23.4731C0 23.7641 0.235875 24 0.526875 24H10.1359H13.5716H23.1806C23.4716 24 23.7075 23.7641 23.7075 23.4731V12.4808C23.7075 12.1898 23.4717 11.954 23.1807 11.954ZM12.3641 1.82644V1.0537H15.0315V2.50256H12.3641V1.82644ZM11.8538 5.21067C14.4246 5.21067 16.662 6.98447 17.2895 9.42553H6.41808C7.04569 6.98447 9.28303 5.21067 11.8538 5.21067ZM2.739 10.4792H5.77706H17.9306H20.9686V11.954H2.739V10.4792ZM13.0448 22.9463H10.6628V18.997H13.0448V22.9463ZM22.6538 22.9463H16.3321V16.2208C16.3321 15.9298 16.0962 15.6939 15.8052 15.6939C15.5142 15.6939 15.2783 15.9298 15.2783 16.2208V22.9463H14.0985V18.4702C14.0985 18.1792 13.8626 17.9433 13.5716 17.9433H10.1359C9.84488 17.9433 9.609 18.1792 9.609 18.4702V22.9463H8.42916V16.2208C8.42916 15.9298 8.19328 15.6939 7.90228 15.6939C7.61128 15.6939 7.37541 15.9298 7.37541 16.2208V22.9463H1.05375V13.0077H2.21217H21.4954H22.6538V22.9463H22.6538Z" fill="black"/>
<path d="M16.4685 14.3789C16.4616 14.3452 16.4511 14.3119 16.4379 14.2804C16.4247 14.2482 16.4084 14.2177 16.3894 14.1893C16.3705 14.1603 16.3483 14.1334 16.3241 14.1092C16.2999 14.085 16.273 14.0628 16.244 14.0439C16.2156 14.0249 16.185 14.0086 16.1529 13.9954C16.1213 13.9822 16.0881 13.9722 16.0544 13.9653C15.9864 13.9517 15.9169 13.9517 15.8489 13.9653C15.8152 13.9722 15.782 13.9822 15.7504 13.9954C15.7182 14.0086 15.6877 14.0249 15.6593 14.0439C15.6303 14.0628 15.6034 14.085 15.5792 14.1092C15.555 14.1334 15.5329 14.1603 15.5139 14.1893C15.4949 14.2177 15.4786 14.2483 15.4654 14.2804C15.4522 14.312 15.4417 14.3452 15.4354 14.3789C15.4285 14.4126 15.4248 14.4474 15.4248 14.4817C15.4248 14.5159 15.4285 14.5507 15.4354 14.5849C15.4417 14.6181 15.4522 14.6513 15.4654 14.6835C15.4786 14.7151 15.4949 14.7456 15.5139 14.7741C15.5329 14.8031 15.555 14.8299 15.5792 14.8541C15.6034 14.8784 15.6303 14.9005 15.6593 14.92C15.6877 14.939 15.7183 14.9553 15.7504 14.9685C15.782 14.9816 15.8152 14.9917 15.8489 14.9985C15.8826 15.0054 15.9174 15.0086 15.9517 15.0086C15.9859 15.0086 16.0207 15.0054 16.0544 14.9985C16.0882 14.9916 16.1213 14.9816 16.153 14.9685C16.1851 14.9553 16.2157 14.939 16.2441 14.92C16.2731 14.9005 16.2999 14.8784 16.3241 14.8541C16.3484 14.8299 16.3705 14.8031 16.3895 14.7741C16.4085 14.7456 16.4248 14.7151 16.438 14.6835C16.4511 14.6513 16.4617 14.6181 16.4685 14.5849C16.4754 14.5507 16.4786 14.5159 16.4786 14.4817C16.4785 14.4474 16.4753 14.4126 16.4685 14.3789Z" fill="black"/>
<path d="M8.56463 14.3789C8.55826 14.3452 8.54776 14.3119 8.53459 14.2804C8.52142 14.2482 8.5051 14.2177 8.48612 14.1893C8.46714 14.1603 8.44501 14.1334 8.42078 14.1092C8.39654 14.085 8.36968 14.0628 8.34071 14.0439C8.31226 14.0249 8.2817 14.0086 8.25011 13.9954C8.21795 13.9822 8.18476 13.9722 8.15106 13.9653C8.08361 13.9517 8.01353 13.9517 7.94561 13.9653C7.9119 13.9722 7.87872 13.9822 7.84708 13.9954C7.81492 14.0086 7.7844 14.0249 7.75595 14.0439C7.72698 14.0628 7.70012 14.085 7.67589 14.1092C7.65166 14.1334 7.62953 14.1603 7.61055 14.1893C7.59156 14.2177 7.57525 14.2483 7.56208 14.2804C7.54891 14.312 7.53836 14.3452 7.53203 14.3789C7.52519 14.4126 7.52148 14.4474 7.52148 14.4817C7.52148 14.6208 7.57787 14.7562 7.67584 14.8541C7.70008 14.8784 7.72694 14.9005 7.75591 14.92C7.78436 14.939 7.81492 14.9553 7.84703 14.9685C7.87862 14.9816 7.91181 14.9917 7.94556 14.9985C7.97926 15.0054 8.01404 15.0086 8.04831 15.0086C8.08258 15.0086 8.11731 15.0054 8.15106 14.9985C8.18481 14.9916 8.21795 14.9816 8.25011 14.9685C8.2817 14.9553 8.31226 14.939 8.34071 14.92C8.36968 14.9005 8.39654 14.8784 8.42078 14.8541C8.51879 14.7561 8.57513 14.6208 8.57513 14.4817C8.57518 14.4474 8.57148 14.4126 8.56463 14.3789Z" fill="black"/>
<path d="M6.0399 13.8242H3.06301C2.77201 13.8242 2.53613 14.0601 2.53613 14.3511V16.6166C2.53613 16.9076 2.77201 17.1434 3.06301 17.1434H6.0399C6.33091 17.1434 6.56678 16.9076 6.56678 16.6166V14.3511C6.56673 14.0601 6.33091 13.8242 6.0399 13.8242ZM5.51303 16.0897H3.58984V14.8779H5.51303V16.0897Z" fill="black"/>
<path d="M6.0399 18.5234H3.06301C2.77201 18.5234 2.53613 18.7593 2.53613 19.0503V21.3158C2.53613 21.6068 2.77201 21.8427 3.06301 21.8427H6.0399C6.33091 21.8427 6.56678 21.6068 6.56678 21.3158V19.0503C6.56673 18.7593 6.33091 18.5234 6.0399 18.5234ZM5.51303 20.7889H3.58984V19.5771H5.51303V20.7889Z" fill="black"/>
<path d="M13.4882 13.8242H10.5113C10.2203 13.8242 9.98438 14.0601 9.98438 14.3511V16.6166C9.98438 16.9076 10.2203 17.1434 10.5113 17.1434H13.4882C13.7792 17.1434 14.0151 16.9076 14.0151 16.6166V14.3511C14.0151 14.0601 13.7792 13.8242 13.4882 13.8242ZM12.9614 16.0897H11.0381V14.8779H12.9614V16.0897Z" fill="black"/>
<path d="M20.9364 13.8242H17.9595C17.6685 13.8242 17.4326 14.0601 17.4326 14.3511V16.6166C17.4326 16.9076 17.6685 17.1434 17.9595 17.1434H20.9364C21.2274 17.1434 21.4633 16.9076 21.4633 16.6166V14.3511C21.4633 14.0601 21.2274 13.8242 20.9364 13.8242ZM20.4096 16.0897H18.4864V14.8779H20.4096V16.0897Z" fill="black"/>
<path d="M20.9364 18.5234H17.9595C17.6685 18.5234 17.4326 18.7593 17.4326 19.0503V21.3158C17.4326 21.6068 17.6685 21.8427 17.9595 21.8427H20.9364C21.2274 21.8427 21.4633 21.6068 21.4633 21.3158V19.0503C21.4633 18.7593 21.2274 18.5234 20.9364 18.5234ZM20.4096 20.7889H18.4864V19.5771H20.4096V20.7889Z" fill="black"/>
</g>
<defs>
<clipPath id="clip0">
<rect width="24" height="24" fill="white"/>
</clipPath>
</defs>
</svg>
